# xmcd CD database file
#
# Track frame offsets:
#	150
#	15722
#	43442
#	63785
#	80589
#	98475
#	120246
#	135730
#
# Disc length: 2207 seconds
#
# Revision: 0
# Processed by: cddbd v1.5.2PL0 Copyright (c) Steve Scherf et al.
# Submitted via: CDex 1.81
#
DISCID=5f089d08
DTITLE=Sungjae Son - Near East Quartet
DYEAR=2018
DGENRE=Jazz
TTITLE0=Ewha
TTITLE1=Mot
TTITLE2=Baram
TTITLE3=Galggabuda
TTITLE4=Garam
TTITLE5=Pa-do
TTITLE6=Ebyul
TTITLE7=Jinayng
EXTD=YEAR: 2018
EXTT0=
EXTT1=
EXTT2=
EXTT3=
EXTT4=
EXTT5=
EXTT6=
EXTT7=
PLAYORDER=
